<svg id="visual" viewBox="0 0 1920 1080" width="1920" height="1080" xmlns="http://www.w3.org/2000/svg" xmlns:xlink="http://www.w3.org/1999/xlink" version="1.1"><path d="M1785 1080L1727.3 1054.3C1669.7 1028.7 1554.3 977.3 1522.3 925.8C1490.3 874.3 1541.7 822.7 1618.5 771.2C1695.3 719.7 1797.7 668.3 1804 617C1810.3 565.7 1720.7 514.3 1698.2 463C1675.7 411.7 1720.3 360.3 1707.5 308.8C1694.7 257.3 1624.3 205.7 1646.8 154.2C1669.3 102.7 1784.7 51.3 1842.3 25.7L1900 0L1920 0L1920 25.7C1920 51.3 1920 102.7 1920 154.2C1920 205.7 1920 257.3 1920 308.8C1920 360.3 1920 411.7 1920 463C1920 514.3 1920 565.7 1920 617C1920 668.3 1920 719.7 1920 771.2C1920 822.7 1920 874.3 1920 925.8C1920 977.3 1920 1028.7 1920 1054.3L1920 1080Z" fill="#131524"></path><path d="M1305 1080L1317.7 1054.3C1330.3 1028.7 1355.7 977.3 1352.3 925.8C1349 874.3 1317 822.7 1281.8 771.2C1246.7 719.7 1208.3 668.3 1230.8 617C1253.3 565.7 1336.7 514.3 1349.5 463C1362.3 411.7 1304.7 360.3 1250.2 308.8C1195.7 257.3 1144.3 205.7 1109.2 154.2C1074 102.7 1055 51.3 1045.5 25.7L1036 0L1901 0L1843.3 25.7C1785.7 51.3 1670.3 102.7 1647.8 154.2C1625.3 205.7 1695.7 257.3 1708.5 308.8C1721.3 360.3 1676.7 411.7 1699.2 463C1721.7 514.3 1811.3 565.7 1805 617C1798.7 668.3 1696.3 719.7 1619.5 771.2C1542.7 822.7 1491.3 874.3 1523.3 925.8C1555.3 977.3 1670.7 1028.7 1728.3 1054.3L1786 1080Z" fill="#15182b"></path><path d="M1151 1080L1157.3 1054.3C1163.7 1028.7 1176.3 977.3 1186 925.8C1195.7 874.3 1202.3 822.7 1180 771.2C1157.7 719.7 1106.3 668.3 1115.8 617C1125.3 565.7 1195.7 514.3 1214.8 463C1234 411.7 1202 360.3 1147.7 308.8C1093.3 257.3 1016.7 205.7 975.2 154.2C933.7 102.7 927.3 51.3 924.2 25.7L921 0L1037 0L1046.5 25.7C1056 51.3 1075 102.7 1110.2 154.2C1145.3 205.7 1196.7 257.3 1251.2 308.8C1305.7 360.3 1363.3 411.7 1350.5 463C1337.7 514.3 1254.3 565.7 1231.8 617C1209.3 668.3 1247.7 719.7 1282.8 771.2C1318 822.7 1350 874.3 1353.3 925.8C1356.7 977.3 1331.3 1028.7 1318.7 1054.3L1306 1080Z" fill="#1d213a"></path><path d="M1113 1080L1109.7 1054.3C1106.3 1028.7 1099.7 977.3 1115.7 925.8C1131.7 874.3 1170.3 822.7 1132 771.2C1093.7 719.7 978.3 668.3 965.5 617C952.7 565.7 1042.3 514.3 1058.3 463C1074.3 411.7 1016.7 360.3 962.2 308.8C907.7 257.3 856.3 205.7 837.2 154.2C818 102.7 831 51.3 837.5 25.7L844 0L922 0L925.2 25.7C928.3 51.3 934.7 102.7 976.2 154.2C1017.7 205.7 1094.3 257.3 1148.7 308.8C1203 360.3 1235 411.7 1215.8 463C1196.7 514.3 1126.3 565.7 1116.8 617C1107.3 668.3 1158.7 719.7 1181 771.2C1203.3 822.7 1196.7 874.3 1187 925.8C1177.3 977.3 1164.7 1028.7 1158.3 1054.3L1152 1080Z" fill="#2e3455"></path><path d="M1055 1080L1045.3 1054.3C1035.7 1028.7 1016.3 977.3 987.5 925.8C958.7 874.3 920.3 822.7 869.2 771.2C818 719.7 754 668.3 782.8 617C811.7 565.7 933.3 514.3 955.8 463C978.3 411.7 901.7 360.3 853.7 308.8C805.7 257.3 786.3 205.7 741.5 154.2C696.7 102.7 626.3 51.3 591.2 25.7L556 0L845 0L838.5 25.7C832 51.3 819 102.7 838.2 154.2C857.3 205.7 908.7 257.3 963.2 308.8C1017.7 360.3 1075.3 411.7 1059.3 463C1043.3 514.3 953.7 565.7 966.5 617C979.3 668.3 1094.7 719.7 1133 771.2C1171.3 822.7 1132.7 874.3 1116.7 925.8C1100.7 977.3 1107.3 1028.7 1110.7 1054.3L1114 1080Z" fill="#31385b"></path><path d="M921 1080L911.3 1054.3C901.7 1028.7 882.3 977.3 856.7 925.8C831 874.3 799 822.7 763.8 771.2C728.7 719.7 690.3 668.3 728.7 617C767 565.7 882 514.3 872.3 463C862.7 411.7 728.3 360.3 686.8 308.8C645.3 257.3 696.7 205.7 687.2 154.2C677.7 102.7 607.3 51.3 572.2 25.7L537 0L557 0L592.2 25.7C627.3 51.3 697.7 102.7 742.5 154.2C787.3 205.7 806.7 257.3 854.7 308.8C902.7 360.3 979.3 411.7 956.8 463C934.3 514.3 812.7 565.7 783.8 617C755 668.3 819 719.7 870.2 771.2C921.3 822.7 959.7 874.3 988.5 925.8C1017.3 977.3 1036.7 1028.7 1046.3 1054.3L1056 1080Z" fill="#2e3455"></path><path d="M786 1080L754 1054.3C722 1028.7 658 977.3 642 925.8C626 874.3 658 822.7 645.2 771.2C632.3 719.7 574.7 668.3 584.3 617C594 565.7 671 514.3 645.5 463C620 411.7 492 360.3 488.8 308.8C485.7 257.3 607.3 205.7 636.2 154.2C665 102.7 601 51.3 569 25.7L537 0L538 0L573.2 25.7C608.3 51.3 678.7 102.7 688.2 154.2C697.7 205.7 646.3 257.3 687.8 308.8C729.3 360.3 863.7 411.7 873.3 463C883 514.3 768 565.7 729.7 617C691.3 668.3 729.7 719.7 764.8 771.2C800 822.7 832 874.3 857.7 925.8C883.3 977.3 902.7 1028.7 912.3 1054.3L922 1080Z" fill="#1d213a"></path><path d="M383 1080L351 1054.3C319 1028.7 255 977.3 258.2 925.8C261.3 874.3 331.7 822.7 309.3 771.2C287 719.7 172 668.3 162.5 617C153 565.7 249 514.3 293.7 463C338.3 411.7 331.7 360.3 306 308.8C280.3 257.3 235.7 205.7 235.7 154.2C235.7 102.7 280.3 51.3 302.7 25.7L325 0L538 0L570 25.7C602 51.3 666 102.7 637.2 154.2C608.3 205.7 486.7 257.3 489.8 308.8C493 360.3 621 411.7 646.5 463C672 514.3 595 565.7 585.3 617C575.7 668.3 633.3 719.7 646.2 771.2C659 822.7 627 874.3 643 925.8C659 977.3 723 1028.7 755 1054.3L787 1080Z" fill="#15182b"></path><path d="M0 1080L0 1054.3C0 1028.7 0 977.3 0 925.8C0 874.3 0 822.7 0 771.2C0 719.7 0 668.3 0 617C0 565.7 0 514.3 0 463C0 411.7 0 360.3 0 308.8C0 257.3 0 205.7 0 154.2C0 102.7 0 51.3 0 25.7L0 0L326 0L303.7 25.7C281.3 51.3 236.7 102.7 236.7 154.2C236.7 205.7 281.3 257.3 307 308.8C332.7 360.3 339.3 411.7 294.7 463C250 514.3 154 565.7 163.5 617C173 668.3 288 719.7 310.3 771.2C332.7 822.7 262.3 874.3 259.2 925.8C256 977.3 320 1028.7 352 1054.3L384 1080Z" fill="#131524"></path></svg>